<?xml version="1.0" encoding="utf-8"?>
<!-- Generator: Adobe Illustrator 23.0.0, SVG Export Plug-In . SVG Version: 6.00 Build 0)  -->
<svg version="1.1" id="Layer_1" xmlns="http://www.w3.org/2000/svg" xmlns:xlink="http://www.w3.org/1999/xlink" x="0px" y="0px"
	 viewBox="0 0 2310.8 2603.7" style="enable-background:new 0 0 2310.8 2603.7;" xml:space="preserve">
<style type="text/css">
	.st0{opacity:0.5;fill:#FF0000;enable-background:new    ;}
</style>
<title>b</title>
<image style="overflow:visible;enable-background:new    ;" width="2312" height="2605" xlink:href="b.png"  transform="matrix(0.9995 0 0 0.9995 0 0)">
</image>
<path class="st0" d="M438.7,1990.3l-2.8,59.3l-39.5,4.4v34.9c0,0,432.9,59.3,823.6,54.9c0,0,426,2.2,610-16.5s191.1-16.3,291.1-29.5
	l-2.8-36.9l-40-8l-3.2-56.3c0,0-346,31.8-577.5,29.6c0,0-402.6,2.9-552.5-2.6S693.8,2016.4,438.7,1990.3z"/>
<path class="st0" d="M444.9,1863.9l-2.4,57.5l-38.6,5.7l-1.6,34.8c0,0,231.6,25.2,435.4,31.1s476.8,12.7,580.4,8.3
	s505.5-10.6,695-33.8l-3.3-36.2l-39.7-4.8l-3.3-59c0,0-485.7,21.5-707.5,21.3c-42.3,0-75.8,1.4-93.7-0.7c0,0-456.9-1-560.2-9.8
	c0,0-241-13-251.3-14.4L444.9,1863.9z"/>
<path class="st0" d="M451,1738.3l-2.2,66.1h-37.5v33.1c0,0,480.1,26.4,636.6,22.8c0,0,673.7,5.1,744.2-5.1l311.8-14.3v-35.3
	l-40.3-2.1l-3.4-62.9c0,0-473.9,11-546.6,9.9s-556.2,0.4-556.2,0.4s-151.9-6.3-225.7-4.8c-6,0.1-12.5,0-20.1-0.2
	c-19.3-0.6-43.7-1.3-68.8-2C555.8,1741.4,451,1738.3,451,1738.3z"/>
<path class="st0" d="M458.2,1614.9l-3.2,63.7h-37.5l-1.5,35c0,0,369.8,12,407.5,7.6s568.2,12.7,794.5,1l309.6-2.4l169.9-4l-1.6-33.7
	l-39.6-2.3l-3.3-64.8L458.2,1614.9L458.2,1614.9z"/>
<path class="st0" d="M463.1,1496.2l-2.2,62.5h-37.1v33.4h293.5c0,0,448.9-2.9,515.8,0c0,0,568.3-4,799.7,0h58.2l-2.6-34.2l-38.9-0.7
	l-3.3-64.7c0,0-738.2-14.3-808.7-11.4c0,0-450,3.7-515,8.1C722.5,1489.2,478.5,1489.2,463.1,1496.2z"/>
<path class="st0" d="M470.1,1381l-2.9,56.6l-36.7,2.6l-1.3,32.5c0,0,386.6-14.3,453.5-12.1s385.3-6.6,557.3-3.3
	s617.1,8.8,644.7,15.4l-2.8-35.1l-38.6-2l-3.7-64.3c0,0-540.2-24.2-793.7-18.7c-80.1,1.7-144.1,1.3-205.3,2
	c-132.4,1.6-252,4.3-495.2,16.3l-72.7,5l-29.6,1.8L470.1,1381z"/>
<path class="st0" d="M475.2,1267l-2,52.9l-36.2,2.8l-0.9,32.7c0,0,235.2-15.2,293.5-17.2c40.3-1.4,248.6-6.5,385.7-9.4
	c61-1.3,98.4-1.4,119.9-1.2c39.9,0.3,329.9-5,537.1,7.5s291.7,13.1,306.4,16.8l-3.6-33.2l-39.1-3.6l-2.2-62.5
	c0,0-565-39.5-712.7-28.5c0,0-304.2-0.7-466.5,8.8c-42,2.5-87.5,3.9-131.6,6.3c-126.4,6.7-243.3,13.9-247.3,19.7
	C470.5,1266.6,475.2,1267,475.2,1267z"/>
<path class="st0" d="M481.8,1142.8c0,0-2.6,60.6-3.1,61s-36.9,3.7-36.9,3.7v32.5c0,0,182.6-29.6,787.6-42.8c0,0,387.2-4,838.3,35.6
	l1.7,0.7l-1.7-31.6l-37.6-4.2l-3.3-63.2c0,0-545.3-53.1-817.2-35.4l-203.3,1.5c0,0-470.7,25.5-516.7,40.7L481.8,1142.8z"/>
<path class="st0" d="M487.5,1029.5l-3.1,58.8l-37.3,7.3l0.9,30c0,0,81.6-28.7,782.4-54c0,0,599.5,3.3,834.2,48.5l-3.3-33.1
	l-37.3-5.5l-3.3-62.1c0,0-486.2-63.6-884-43.7c0,0-408.9,12.1-609.4,47.4L487.5,1029.5z"/>
<path class="st0" d="M493.5,916.4c0,0-1.7,60.3-3.9,61s-35.3,5.9-35.3,5.9v29.9c0,0,217.5-47.8,606.1-59.5s808.9,13.2,998.4,51.4
	l-3.5-31.2l-38-6.8l-3.1-60.4c0,0-421.2-72-788.1-52.2c-63,3.4-111.2,2.9-151.2,4.3c-143,4.9-173.2,3.6-328.4,20.7
	c-39.4,4.3-87.3,11.3-146.7,19.7c-22.5,3.2-46.1,7.3-72.4,10.5L493.5,916.4z"/>
<path class="st0" d="M498.4,807.8l-2.9,58l-34.9,7.9l-0.9,28.7c0,0,246.7-54.6,599.3-70s648,10,695.8,18.6s74.2-0.6,237.7,30.3
	l57.9,11.3l-1.5-31l-37.7-7.8l-2.7-59.5c0,0-380.1-73.1-759.2-63.2c0,0-331.3,4.4-495.2,31.6s-123.4,14.7-227.8,38.2L498.4,807.8z"
	/>
<path class="st0" d="M504.2,698.7l-2.8,58.6l-35.8,8.1V794c0,0,252.4-67.4,596.2-79.9s540.7,5.1,540.7,5.1s335.8,28.7,443,62.4
	l-2.9-29.6l-36.8-8.1l-3.4-59.4c0,0-306.5-84.3-797.2-68.9c0,0-341.6,5.1-580.8,55.8L504.2,698.7z"/>
<path class="st0" d="M508.4,590.4l-2.4,57.1l-35.3,10.8v27.7c0,0,354.1-101.8,785.4-95.5s539.3,31.6,780.6,81.2l-1.7-29.6l-35.9-8.4
	l-3.2-58.2c0,0-415.5-102.1-754.9-76.8c0,0-398.6,3.7-627.1,66.8L508.4,590.4z"/>
<path class="st0" d="M513.9,486.9l-2.3,56.6l-33.3,11.4l-1.2,26.9c0,0,181-62.6,426.4-84.6c177.6-16,342.9-25,505-19.2
	c61.8,2.2,118,3.1,184.6,11.4c223.1,27.9,238.8,22.8,437.1,74.9l-0.7-26.8l-36.4-10.5l-2.4-56.7c0,0-267.5-89.6-748-86.3
	c0,0-363.7,5.5-570.8,61.7c0,0-108.7,22.8-154.7,40L513.9,486.9z"/>
<path class="st0" d="M519.7,382.4l-2.9,56.9l-33.4,11v27.5c0,0,221.5-87.8,613.1-110.6c291.8-17,591.4,13.8,778,52.8
	c63.8,13.3,115.5,25.2,147.7,39.8l2.8,0.9l-1.1-29.1l-36.7-10.1l-2.3-56.7c0,0-263.9-95.5-744.4-93.3c0,0-313.7-4-639.9,86.3
	L519.7,382.4z"/>
<path class="st0" d="M524.6,281.2l-2.2,55.5l-34.9,11.9v27.2c0,0,145.6-81.2,595.3-119.8c327.8-28.1,662.9,28.2,828.4,68
	c61.5,14.8,82.8,24,106.2,31.2l0.6-25.7l-35.8-12.4l-4-55.3c0,0-234.2-97.3-734.5-101.7c0,0-322.9-5.9-669.7,102.9L524.6,281.2z"/>
<path class="st0" d="M529.4,180.6l-1.7,53.6l-34.5,14.1v26.4c0,0,64.7-44.1,376.2-102.1c0,0,300.5-50.7,567.9-27.2
	s429.4,52.5,540.4,97l35.3,13.2l-1.5-28.3l-35.7-13.2l-2.9-55.1c0,0-235.1-106.9-729.5-105.4c0,0-302,2.9-498.9,58.8
	c0,0-140.6,33.6-206,64.7L529.4,180.6z"/>
</svg>
