<?xml version="1.0" encoding="utf-8"?>
<!-- Generator: Adobe Illustrator 23.0.0, SVG Export Plug-In . SVG Version: 6.00 Build 0)  -->
<svg version="1.1" id="_5" xmlns="http://www.w3.org/2000/svg" xmlns:xlink="http://www.w3.org/1999/xlink" x="0px" y="0px"
	 viewBox="0 0 2000.8 2464.3" style="enable-background:new 0 0 2000.8 2464.3;" xml:space="preserve">
<style type="text/css">
	.st0{opacity:0.65;fill:#F91515;enable-background:new    ;}
	.st1{opacity:0.5;fill:#4007DD;enable-background:new    ;}
	.st2{opacity:0.61;fill:#2CFF00;enable-background:new    ;}
	.st3{opacity:0.5;fill:#FFCE00;enable-background:new    ;}
	.st4{opacity:0.5;fill:#BA18D1;enable-background:new    ;}
	.st5{opacity:0.5;fill:#E8101B;enable-background:new    ;}
	.st6{opacity:0.5;fill:#F70065;enable-background:new    ;}
	.st7{opacity:0.5;fill:#000CF4;enable-background:new    ;}
	.st8{opacity:0.5;fill:#FF005C;enable-background:new    ;}
	.st9{opacity:0.5;fill:#2B00FF;enable-background:new    ;}
	.st10{opacity:0.47;fill:#FFCE00;enable-background:new    ;}
	.st11{opacity:0.5;fill:#FF0055;enable-background:new    ;}
	.st12{opacity:0.5;fill:#AE00FF;enable-background:new    ;}
	.st13{opacity:0.5;fill:#0FE8E8;enable-background:new    ;}
	.st14{opacity:0.42;fill:#FFB000;enable-background:new    ;}
	.st15{opacity:0.5;fill:#0013FF;enable-background:new    ;}
	.st16{opacity:0.5;fill:#00FF36;enable-background:new    ;}
	.st17{opacity:0.58;fill:#FFCE00;enable-background:new    ;}
</style>
<image style="overflow:visible;" width="2000" height="2465" xlink:href="cd.png"  transform="matrix(1 0 0 1 0.1429 -1.0612)">
</image>
<title>cd</title>
<polygon id="_1" class="st0" points="192.8,1719.5 191.6,1764 178.6,1774.2 176.1,1807.8 1831.8,1811.9 1833.5,1796.4 
	1831.8,1796.1 1831.5,1774.4 1818,1764.5 1816.7,1719.2 "/>
<polygon id="_2" class="st1" points="194.2,1627 193.4,1673.2 179.8,1681.2 179.1,1719.2 1826.1,1719.2 1826.7,1714 1829.1,1713.7 
	1829.1,1681.8 1815.3,1673.9 1814.7,1626.8 "/>
<polygon id="_3" class="st2" points="196.7,1534.2 195,1583.1 182.7,1588.8 181.8,1627.5 1827.5,1627.2 1826.7,1587.5 
	1813.6,1583.5 1812.3,1533.1 "/>
<polygon id="_4" class="st3" points="199.3,1443.6 197.9,1492.9 184.6,1497.6 184.7,1534.1 1824.8,1535.3 1824.8,1497.3 
	1816.7,1494.9 1818.9,1473.7 1823.3,1472.5 1823.8,1443.6 "/>
<polygon id="_5-2" class="st4" points="200.5,1353 200.5,1402.9 187,1406.4 186.8,1443.1 1823.8,1443.6 1822.2,1353.1 "/>
<polygon id="_6" class="st5" points="203.2,1262.4 202.2,1312.7 189,1315.6 188.1,1352.2 1822.2,1353.1 1821.8,1261.6 "/>
<path id="_7" class="st6" d="M204.9,1172.9c0,0,0,50.7-0.6,50.7s-11,4-11,4l-2,34.9l1630.5-0.9l-4.9-89.4L204.9,1172.9z"/>
<path id="_8" class="st7" d="M207.5,1083.5l-0.7,51.4l-14.2,1.1l0.5,36.9l1623.9-0.6c0,0-4.7-85-8.6-91.3L207.5,1083.5z"/>
<path id="_9" class="st3" d="M209.1,996.8l-1.5,49.5l-13,0.7l0.6,33.6l12.2,2.9l1607.5-2.6l0.2-34.5l-10.8,0.2
	c0,0-3.7-50.3-7.5-52.2L209.1,996.8z"/>
<polygon id="_10" class="st8" points="211.1,909.2 210.8,957.1 197.9,957.7 196.9,993 209.1,996.8 1812.7,994.4 1811.9,957.5 
	1798.6,957.8 1797.4,909.3 "/>
<polygon id="_11" class="st9" points="213.5,823 212.5,869.1 199.5,869.2 199.3,905.1 211.1,909.2 1797.4,909.3 1807.4,904.3 
	1809.6,869.1 1796.4,868.6 1795.4,822.3 "/>
<polygon id="_12" class="st10" points="215.3,737.2 214.5,782.1 201.8,781.3 200.4,817.3 213.5,823 1795.4,822.3 1808.3,817.1 
	1807.4,780.2 1794.5,781.4 1793.6,735.7 "/>
<polygon id="_13" class="st11" points="217.4,650.7 216.4,694 203.9,694.3 202.6,730 215.3,737.2 1793.6,735.7 1806.4,729.2 
	1805.9,692.9 1792.8,693.6 1791.5,649.4 "/>
<polygon id="_14" class="st12" points="219.5,565.3 218.2,607.4 205.7,607.6 205.3,641.9 217.4,650.7 1791.5,649.4 1803.7,640.8 
	1803,605.7 1790.1,605.9 1789.6,563.9 "/>
<polygon id="_15" class="st13" points="221.5,480.3 220.6,520.1 207.5,521.1 207.4,556.5 219.5,565.3 1789.6,563.9 1801.4,555.1 
	1801.4,519.3 1788.6,519.1 1787.6,478.4 "/>
<path id="_16" class="st14" d="M224.1,396.2l-1.3,37.7l-13.4,0.4l0.2,35.8l11.9,10.3l1566.1-2l12.7-10.4c0,0-0.5-35.5-1.2-35
	s-12,0.2-12,0.2l-2-39.4L224.1,396.2z"/>
<polygon id="_17" class="st15" points="225.2,312 224.7,349.1 211.6,349.3 211.9,384 226.7,396.3 1785.1,393.7 1797.6,382.9 
	1796.7,347.3 1784.4,347.9 1783.4,310.4 "/>
<polygon id="_18" class="st16" points="227.3,227.9 226.3,263.7 213.6,264.7 213.4,299.4 225.2,312 1783.4,310.4 1795.4,297.8 
	1794.7,262.1 1782.5,262.3 1781.6,227.1 "/>
<polygon id="_19" class="st17" points="229.4,145.3 228.1,179.4 215.8,179.2 215.6,213.4 229.8,227.5 1781.6,227.1 1793.4,213.1 
	1792.7,177.2 1780.7,177.3 1779.3,143.4 1791,128 218.7,130.5 "/>
</svg>
