<svg id="Layer_1" data-name="Layer 1" xmlns="http://www.w3.org/2000/svg" xmlns:xlink="http://www.w3.org/1999/xlink" viewBox="0 0 2467 800"><defs><style>.cls-1{fill:#1b30ef;}.cls-1,.cls-10,.cls-2,.cls-3,.cls-4,.cls-5,.cls-6,.cls-7,.cls-8,.cls-9{opacity:0.5;}.cls-2{fill:#f21919;}.cls-3{fill:#079b90;}.cls-4{fill:#ef9d1b;}.cls-5{fill:#d3520b;}.cls-6{fill:#07cedd;}.cls-7{fill:#1b1bef;}.cls-8{fill:#2ecc02;}.cls-9{fill:#c61bef;}.cls-10{fill:#1bef39;}</style></defs><title>cdgegma</title><image width="2467" height="800" xlink:href="cd.png"/><polygon class="cls-1" points="314.48 12.1 314.48 67.14 322.19 67.14 321.03 353.92 514.32 353.92 514.32 343.51 579.21 344.25 580.07 117.96 571.07 117.84 571.07 68 586.93 68 586.93 12.1 314.48 12.1"/><polygon class="cls-2" points="590.6 12.1 590.6 68 588.64 68 588.64 345.47 603.83 345.47 603.83 353.92 757.25 353.92 756.8 117.53 748.44 117.53 748.44 67.27 755.85 67.27 755.85 12.1 590.6 12.1"/><polygon class="cls-3" points="759.46 12.1 759.46 67.02 767.17 67.02 767.17 299.18 779.42 299.18 779.42 363.59 931.62 363.59 931.62 311.31 936.28 311.31 936.28 117.94 932.16 117.94 932.16 67.02 938.68 67.02 938.68 12.1 759.46 12.1"/><polyline class="cls-2" points="950.11 357.22 1130.97 357.22 1130.97 403.26 1222.07 403.26 1222.07 361.88 1224.52 361.88 1225.26 67.27 1231.62 67.27 1231.62 11.92 942.49 12.1 942.49 66.93 950.11 66.93 950.11 118.63 945.52 118.63 945.52 311.31 950.11 311.31"/><polyline class="cls-4" points="1517.55 357.22 1336.69 357.22 1336.69 403.26 1245.59 403.26 1245.59 361.88 1243.14 361.88 1242.41 67.27 1236.04 67.27 1236.04 11.92 1525.17 12.1 1525.17 66.93 1517.55 66.93 1517.55 118.63 1522.14 118.63 1522.14 311.31 1517.55 311.31"/><polygon class="cls-2" points="1529.66 11.92 1529.66 67.02 1535.79 67.02 1535.79 118.69 1531.13 118.69 1531.13 312.16 1535.79 312.16 1535.79 363.1 1689.58 363.1 1689.58 298.91 1702.07 299 1702.07 67.39 1708.44 67.39 1708.44 11.92 1529.66 11.92"/><polygon class="cls-5" points="1712.48 11.92 1712.48 67.02 1718.85 67.02 1718.85 118.45 1711.01 118.45 1711.01 353.92 1862.97 353.92 1862.97 344.86 1878.95 344.86 1878.95 67.08 1877.48 67.08 1877.48 12.78 1712.48 11.92"/><polygon class="cls-6" points="1880.11 11.92 1880.11 67.51 1896.03 67.51 1896.03 118.08 1888.07 118.08 1887.7 344 1948.44 344 1948.44 362.49 2146.81 362.49 2146.81 67.2 2153.54 67.2 2153.54 11.92 1880.11 11.92"/><polygon class="cls-2" points="2439.71 66.29 2439.71 118.82 2456.01 118.82 2456.01 232.79 2438.97 232.79 2438.97 284.49 2456.01 284.49 2456.01 360.07 2448.06 360.07 2448.06 444.93 2454.03 444.93 2454.03 519.96 2438.97 519.96 2438.97 571.02 2454.4 571.02 2454.4 695 2439.25 695 2439.25 747.26 2452.93 747.26 2452.93 784.7 2279.91 784.7 2279.91 737.25 2164.01 737.25 2164.01 695.55 2155.75 695.55 2155.75 548.62 2166.58 548.62 2166.58 488.37 2163.83 488.37 2163.83 438.41 2155.75 438.41 2155.75 362.49 2164.44 362.49 2164.44 66.53 2157.83 66.53 2157.83 11.92 2456.01 11.92 2456.01 66.29 2439.71 66.29"/><polygon class="cls-2" points="28.52 66.25 28.52 118.78 12.22 118.78 12.22 232.75 29.26 232.75 29.26 284.44 12.22 284.44 12.22 360.02 20.17 360.02 20.17 444.88 14.2 444.88 14.2 519.91 29.26 519.91 29.26 570.98 13.83 570.98 13.83 694.96 28.98 694.96 28.98 747.22 15.3 747.22 15.3 784.65 188.32 784.65 188.32 737.21 304.22 737.21 304.22 695.5 312.48 695.5 312.48 548.58 301.65 548.58 301.65 488.32 304.4 488.32 304.4 438.37 312.48 438.37 312.48 362.44 303.79 362.44 303.79 66.48 310.4 66.48 310.4 11.88 12.22 11.88 12.22 66.25 28.52 66.25"/><polygon class="cls-7" points="1948.19 447.1 2146.56 447.1 2147.3 746.86 2151.46 746.86 2151.46 784.7 1977.58 784.7 1977.58 737.06 1948.19 737.06 1948.19 447.1"/><polygon class="cls-8" points="518.83 447.1 320.46 447.1 319.72 746.86 315.56 746.86 315.56 784.7 489.44 784.7 489.44 737.06 518.83 737.06 518.83 447.1"/><polygon class="cls-9" points="1536.03 447.35 1669.99 447.35 1669.99 544.33 1728.03 544.33 1726.56 737.8 1703.3 737.8 1703.3 783.84 1530.4 783.84 1530.4 747.35 1534.81 746.37 1536.03 447.35"/><polygon class="cls-2" points="930.5 447.35 796.54 447.35 796.54 544.33 738.5 544.33 739.97 737.8 763.23 737.8 763.23 783.84 936.13 783.84 936.13 747.35 931.72 746.37 930.5 447.35"/><polygon class="cls-2" points="1525.17 363.1 1525.17 438.41 1518.77 438.41 1518.12 489.29 1516.1 489.29 1516.1 548.25 1526.11 548.25 1526.11 695 1518.03 695 1518.03 737.43 1398.09 737.43 1398.09 783.84 1235.91 783.84 1235.91 747.22 1243.01 747.22 1243.13 438.78 1245.09 438.78 1245.09 408.9 1342.07 409.14 1342.07 362.86 1525.17 363.1"/><polygon class="cls-10" points="942.87 363.1 942.87 438.41 949.28 438.41 949.92 489.29 951.94 489.29 951.94 548.25 941.93 548.25 941.93 695 950.01 695 950.01 737.43 1069.95 737.43 1069.95 783.84 1232.13 783.84 1232.13 747.22 1225.03 747.22 1224.91 438.78 1222.95 438.78 1222.95 408.9 1125.97 409.14 1125.97 362.86 942.87 363.1"/></svg>