<svg id="Layer_1" data-name="Layer 1" xmlns="http://www.w3.org/2000/svg" xmlns:xlink="http://www.w3.org/1999/xlink" viewBox="0 0 1838 950"><defs><style>.cls-1{fill:#f47f0b;}.cls-1,.cls-2,.cls-3,.cls-4,.cls-5,.cls-6,.cls-7,.cls-8{opacity:0.5;}.cls-2{fill:#0be4f4;}.cls-3{fill:#c908f7;}.cls-4{fill:#0b90f4;}.cls-5{fill:#f40b0b;}.cls-6{fill:#f4e30b;}.cls-7{fill:#1b9e97;}.cls-8{fill:#4af40b;}</style></defs><title>f-korpusi</title><image width="1838" height="950" xlink:href="f-korpusi.png"/><path class="cls-1" d="M12.17,271s224.24-118.87,353.05-162l16.6,45.43-1.84.73L487.43,465.88s-142.29,58-288.74,127.59l-56.81-96,16.41-9.06L78.39,351l-15.25,9.74Z" transform="translate(0.14 -1.08)"/><path class="cls-2" d="M373.06,102.45l16.65,48.49,2.58.12L495.14,455.35S580,429.27,623,417.51L597.27,297.39l1.79-.6-31.55-144-2,.1L554.1,105.72l5.42-1.46-11.3-51.53S425.47,80.9,373.06,102.45Z" transform="translate(0.14 -1.08)"/><path class="cls-3" d="M550.61,52.28l11.57,51.24,4.32-1.19,11.48,48-2.76,1L607.09,295l7.9-1.56L628.77,353l-5.88,1.65,12.4,59.51s104.87-18.36,133-18.12l-5.39-44.81,2,.12L740,123.82h-1.65l-6.25-48.68L738,75,731.9,21.33S577.8,42,550.61,52.28Z" transform="translate(0.14 -1.08)"/><path class="cls-4" d="M734.84,21.42l5.69,53.26,5.14-.73,4.5,48.86-1.28.27L773,350.29h2.69l4.11,40.77,133.22-7.22,1-319.35,2.2.24h2.7l-.49-53.14S770.65,14.59,734.84,21.42Z" transform="translate(0.14 -1.08)"/><path class="cls-3" d="M921.27,11.59l-.13,53.14,5.39.25-.76,318.83,134.72,8.72,2.94-42.24,3.3.36,24.13-227.38-2-1.11,4.9-47.87,5.63.12,4.41-52.9S1057.92,12.69,921.27,11.59Z" transform="translate(0.14 -1.08)"/><path class="cls-5" d="M1106.9,21.27l-5.39,52.89,5.14,1.23-4.83,48.55-2.94.12-24.71,226.87,2.57.32-4.86,41.89,132.24,21.43,60.8-263.16-2.21-.59,10.47-48.68,5.33.92,11.2-52S1204,33.88,1106.9,21.27Z" transform="translate(0.14 -1.08)"/><path class="cls-3" d="M1292.1,52.24l-8.2,35.39,22.59,7-2.2,7.47-19.72-4.65-1.22,6.86,2.08,1-44.76,192,10.38,1.92-13.5,59.51-8-1.34L1216.24,417l128.58,36.92,103.1-302.33,2.08-.61,17.51-50.21S1360.37,65,1292.1,52.24Z" transform="translate(0.14 -1.08)"/><polyline class="cls-6" points="1624.39 587.74 1626.96 583.08 1595.61 564.84 1595.61 563.49 1587.16 559.2 1357.2 453.04 1460.03 153.78 1458.47 153.13 1474.08 107.31 1623.65 166.26 1777.45 245.12 1780.88 242.18 1828.88 270.59 1776.96 358.75 1760.92 350.06 1684.88 483.9 1703.73 494.67 1643.8 599.18 1624.51 588.16"/><path class="cls-3" d="M1425.14,500.16s180.25,79.11,188.82,87.43l-7.35,14.7,6.12,3.18L1510.24,785.84l-.24,1.47L1528.37,798l-77.76,135.67-3.67-2.57s-98.08-70.16-216-109.84l16.44-46.28,1.93.18,16.25-47-1.93-1.1,29.27-86.14,5.08,1.53,20.69-58.1-6.3-2.45L1329.2,534l70.17,27.73Z" transform="translate(0.14 -1.08)"/><path class="cls-7" d="M1116.69,482.9s112.78,13.34,203.88,48.86l-15.92,47.87-5-1.22-20.48,57.4,5.79,2.66L1256,724l-3.41.22-14.69,46.29,3.06,1.35L1223,821.78s-66.18-23.7-135.61-34.72l.43-201.95,28.74-.18Z" transform="translate(0.14 -1.08)"/><path class="cls-3" d="M700.49,487.49s120.12-16.71,149.88-18.18l-.09,81.36,36.82.49-.18,221.76s-99.19,4.77-136.47,14.51l-7.53-44.82L754.31,741s1.1-8.27-.37-8.08-7.16,1.28-7.16,1.28l-7.54-47.94-3.12.37-17.45-98.26,6.06-.92-10.28-59.7-6.61.37Z" transform="translate(0.14 -1.08)"/><path class="cls-8" d="M518.9,531.88S685.43,489,691.49,488.59l8.27,41.14-6.25.56,10.47,61,6.24-.37L749,787.61s-86.2,17.7-132,33.37l-14.2-41.27,24.61-7.16-2-7.71L602,770.53l-15.61-46.65-2.21.18Z" transform="translate(0.14 -1.08)"/><path class="cls-3" d="M510.57,534.33l18,51.61-7.35,2.94,19.47,58,7.9-2.21,28,82.47-2.08,1.56,15.8,46,2.29-.19,18.09,52.72S462.82,887,392.65,937.67l-81.3-139.22,19.1-11.27L217.31,591.76l198.12-92.33,24.89,63.83Z" transform="translate(0.14 -1.08)"/></svg>