<svg id="Layer_1" data-name="Layer 1" xmlns="http://www.w3.org/2000/svg" xmlns:xlink="http://www.w3.org/1999/xlink" viewBox="0 0 2000 2286"><defs><style>.cls-1{fill:#e2174c;opacity:0.35;}.cls-2{fill:#3f19e0;opacity:0.29;}.cls-3{fill:#ffd400;opacity:0.38;}.cls-4{fill:#0049ff;}.cls-4,.cls-6{opacity:0.65;}.cls-5{fill:#f0f;opacity:0.78;}.cls-6{fill:#0dff00;}.cls-7,.cls-9{fill:#3700ff;}.cls-7,.cls-8{opacity:0.54;}.cls-8{fill:#ff7300;}.cls-10,.cls-11,.cls-12,.cls-13,.cls-14,.cls-15,.cls-16,.cls-9{opacity:0.5;}.cls-10{fill:#00ff18;}.cls-11{fill:#0000d8;}.cls-12{fill:#ef0056;}.cls-13{fill:#4900ea;}.cls-14{fill:#e800a6;}.cls-15{fill:#00ff85;}.cls-16{fill:#f908a9;}.cls-17{fill:#39f70b;opacity:0.71;}</style></defs><title>F</title><image width="2000" height="2286" xlink:href="f.png"/><path class="cls-1" d="M285.14,1770.08l-2.08,47.39-32.33,5.14-1.1,30.12h-3.92s-.49,20.09-1,20.09l-7.46.12-.49,2.69s310.89,40.66,515.14,39.92c0,0,504,8.08,619.35-11.75,0,0,242.81-12.86,315.18-31.23l-.28-1.51-10.7-.19-.64-21-35,4-4.23-85.6s-293.69,26.82-515.57,26.09c0,0-258.61,3.67-473.14-2.94,0,0-243.43-9.55-354.62-20.33Z" transform="translate(0.33 0.18)"/><path class="cls-2" d="M291.69,1664.1l-2.26,51.06-32.51,2-1.1,29.39-3.86.37-.74,20.39s305.27,27,549.92,27.73,554.7-1.47,743.51-20.57l124.41-9.06-.06-20.7-3.58-.18-.83-29.29-33,1.83-1.38-53.78s-395.63,22.28-666.73,16.4c0,0-375.43,1.47-659.75-14Z" transform="translate(0.33 0.18)"/><path class="cls-3" d="M297.51,1560.45l-2.33,52.16-31.34,3.06L261.51,1642l-3.67.86V1662s463.22,21.43,545.51,18.49c0,0,478.28,1.47,634-7.35l226.77-12.24-.85-19.72h-3.43l-.49-28.16-31.84.49-3.06-53.27s-413.76,8.58-507.43,4.17c0,0-306.61,1.47-313,1.47S297.51,1560.45,297.51,1560.45Z" transform="translate(0.33 0.18)"/><path class="cls-4" d="M303.76,1458.45,300.33,1511l-31.11,1.22-.73,27.68-3.67.24-1,18.37s524.81,11.39,535.83,7,363.68,4.77,504,.37,354.86-5.88,354.86-5.88l-1.1-20.57-33.43.55-4.59-82.2s-466.1-3.09-501.37-3.09-510.86.25-510.86.25Z" transform="translate(0.33 0.18)"/><path class="cls-5" d="M309.39,1360.86l-2.94,49-31.23,1.34-1.71,27.19-2.57,1-.86,18.61L1408,1455.27l245.63,3.55-1.22-19.11-4.41-1-1.22-26.69-29.88-1.22-2.94-53.39s-352.9-13-461.14-10c0,0-458.94-6.37-541.23,1.47,0,0-259.1,5.87-285.06,7.34Z" transform="translate(0.33 0.18)"/><path class="cls-6" d="M316.24,1258.24s-3.18,52.17-3.91,51.92-31.6,2.21-31.6,2.21l-.49,26.69-3.42.74-.25,17.63s469.47-14.21,686.94-12c0,0,605.39,7.35,682.53,14l1.56.18-.82-18.73-4.23-.55-.09-26.73-30.49-1.28-2.54-52.08s-427.35-33.06-798.74-22c0,0-360.24,7.35-408.73,14.7Z" transform="translate(0.33 0.18)"/><path class="cls-7" d="M321,1161.2s-1.65,52-2.75,51.8-30.86,2.76-30.86,2.76l-1.65,25.71h-2.94l-1.11,19.29s492.62-31.41,835.35-23.7,525.06,25.59,525.06,25.59l-.3-18.7-4.23-.64-.09-27.37-31-.74-1.93-52.07s-466.53-46.19-793.84-28.56c0,0-250,.74-426.36,19.84Z" transform="translate(0.33 0.18)"/><path class="cls-8" d="M326,1065l-2.76,51.24-30.3,3.68-1.65,25.9-3.49.91v17.45s486.91-45,676.46-33.24,126.37-14,672.25,36.73l.37-18.61-3.19-.61-.85-26.94-30.86-2.08-2.45-51.43s-350.94-47.27-636.73-39.18c0,0-283.6,2.2-378.13,11,0,0-182.45,12.85-247.1,23.51Z" transform="translate(0.33 0.18)"/><path class="cls-9" d="M331.43,971.71l-2.33,49.6-30.61,4.4-1,25.35-3.8,1.23.74,18.24s229.71-38.08,533.14-41.75c0,0,525.31-2.21,799.72,44.08l3.55-.13h.85v-17.38l-4.4-.86-.49-24.61-30.37-5.64-2-49.83s-355.1-61.35-777.18-47c0,0-333.55,13.22-477.55,41.88Z" transform="translate(0.33 0.18)"/><path class="cls-10" d="M336.33,878.41,335,927.14l-30.61,6.13L302.78,959l-2.82.37-.61,17s167.51-40.17,587-51.19c0,0,350.45-11,740.57,56.58l-.46-18.65-2.85-.55-1.37-24.34-30.68-6.52-1.13-48.76S1329.39,824.53,965,826c0,0-367.59-2.2-619.35,49.71Z" transform="translate(0.33 0.18)"/><path class="cls-11" d="M341.71,787l-2.2,48.92-30.24,6.49L308.16,867l-2.45.37-.85,18.37s158.32-47.27,528.61-59c0,0,477.55-14.69,789.06,63.19l-.92-18-4.41-1.29-.36-23.69-29.21-5.7-2.94-50.14S1297.8,720.2,892.24,729c0,0-284.32-1.47-531.18,53.63Z" transform="translate(0.33 0.18)"/><path class="cls-12" d="M347.1,698.41l-2,48-29.63,7.1-1.71,23.27h-3.19v17.87s251-82.16,798.74-62.32c0,0,251.63,3.3,506.57,67.22h1.19l-.55-16.16-3.67-1.66-.37-22.77-30-8.27-1.93-47.93s-225.46-67.41-625.5-74c0,0-364.77,6.62-569.75,58.41Z" transform="translate(0.33 0.18)"/><path class="cls-13" d="M352.49,609.14,350,656.65,320,664l-.61,24.24-2.45.25-1.1.24-.37,17.51s229.47-67.59,513.55-72c0,0,139.59-12.24,319.84,2.94s363.43,41.15,463.34,74.94l.1-17.08-4.78-1.74-.37-23.15-29.48-7.25-1.47-46.53S1411.67,546.08,965,535.06c0,0-244.16,1.72-408.25,28.16,0,0-170.93,33.07-188.08,40.9Z" transform="translate(0.33 0.18)"/><path class="cls-14" d="M358.12,521.47l-2.32,47.75-30.49,9.19-.62,22.9-3.06.49-.49,16.89s184.17-57.91,375.68-71.14,316.4-19.59,549.06,4.9,361.47,72.49,361.47,72.49l.12-16.65-3.55-.74-.12-23-30.13-9.18-1.65-46.9S1424.16,457.18,965,441c0,0-296.82,7.35-404.82,33.06,0,0-163.83,30.49-181.47,41.88Z" transform="translate(0.33 0.18)"/><path class="cls-15" d="M362.35,436.43l-2.21,47-29.57,9.37-.92,22-2.75.92-.74,16.89s176-76.22,586.66-90.91c0,0,405.91-9.19,688,97.71l1.34.12V523.18l-3.06-1.71-.36-21.43-29.15-10.53-2.2-44.69S1316.53,343.31,903.27,351c0,0-313,7.71-508.41,75.31Z" transform="translate(0.33 0.18)"/><path class="cls-16" d="M367.67,352.67l-2.2,45.92-29.94,9.92-.18,22.41-4,1.47.55,15.79s169.53-77.69,523.65-96.06c0,0,218.94-13.22,489.31,32.33,0,0,185.63,38.69,253.22,71l-.31-16.84-4.13-1.47.09-21.39L1565,405.57l-1.28-45.92s-325.47-124.34-737.64-96.79c0,0-249.06,16.53-445.22,82.65Z" transform="translate(0.33 0.18)"/><path class="cls-17" d="M371.71,268.92l-1.59,46.61-28.9,10.41-1.46,23-3.07.61.25,15.92s153.43-74.82,489.18-101.63S1507.18,327.78,1592,373h2l-.55-16.35-3.86-.73-.55-20.39-28.47-13L1559,278.18s-125.34-58.79-341.27-88.67c-66.85-9.25-142.35-15.09-225.55-16.65,0,0-199.84-20-469.56,48.67-27.24,6.94-56.59,15.78-85.13,24.61Z" transform="translate(0.33 0.18)"/></svg>