<svg id="Layer_1" data-name="Layer 1" xmlns="http://www.w3.org/2000/svg" xmlns:xlink="http://www.w3.org/1999/xlink" viewBox="0 0 1920 999"><defs><style>.cls-1{fill:#ef0034;opacity:0.44;}.cls-2{fill:#4500ed;}.cls-10,.cls-2,.cls-3,.cls-4,.cls-6,.cls-7,.cls-8,.cls-9{opacity:0.5;}.cls-3{fill:#eac800;}.cls-4{fill:#d316cf;}.cls-5,.cls-6{fill:#00c60e;}.cls-7{fill:#f200f2;}.cls-8{fill:#0600ef;}.cls-9{fill:#00eddb;}.cls-10{fill:#ea0017;}.cls-11,.cls-12,.cls-13{fill:#a900e8;}.cls-11{opacity:0.39;}.cls-12{opacity:0.22;}.cls-13{opacity:0.71;}</style></defs><title>sartuli57777</title><image width="1920" height="999" xlink:href="sartuli.png"/><path class="cls-1" d="M411.76,61.83s78.85,62.9,224.57,116.29l-16,47.73-2.48-.09L614,237.33l-12.37,37.28,2,.86L574.21,361.4l-7.62-2L546,419l9.37,4.5-19.72,54.15-75.18-28.77-25.71,64.65L261.63,434.78l-1,1.71-23.51-15.43,7.59-14.2-5.38-4.66-1.49-1.13L346.49,213.63l2.45-4.22-17.27-9.74Z" transform="translate(0.78 -39.73)"/><path class="cls-2" d="M646.4,177.63s82,26.64,136.38,36l-8.09,45.55-10.47-3.49-2.38,8.64,6.43,2.38-8.64,49.53,2.08,1.72L743.22,418.24l-7-.61-10.59,63.06,6.06,1.66-7.16,42.24L626.41,499.8l-82.9-20.21Z" transform="translate(0.78 -39.73)"/><path class="cls-3" d="M787.55,213.27S843.39,226.86,926.41,228l1.1,316.53s-57.67,1.59-89.14-5.14L733,526.52l7.26-42.8,7.25.74,10.93-63.09-6.71-1.66L770,318.79l4.68.18,6.52-50.51,8.09.83.73-9.19s-8.91.37-12.21-.64l8.35-46.1Z" transform="translate(0.78 -39.73)"/><path class="cls-4" d="M1138.18,213.17s106.47-22.8,139.29-35.9l15.92,44.81.37,9.06,16.16,47.79,2.29.18,30.86,90.37-6.15,1.56L1358,431.56l5-1.38.73-.09L1381,479.78S1248.33,520,1216.73,522.69l-21.42-98.75-57.77.27Z" transform="translate(0.78 -39.73)"/><path class="cls-5" d="M1780.67,516.94" transform="translate(0.78 -39.73)"/><path class="cls-6" d="M1288,178.12S1451.35,117.76,1512.69,63l79.6,136.41-16.41,10.16,121.73,209.94s-197.41,87.25-207.69,94.23L1463,447.51l-73.71,29.63Z" transform="translate(0.78 -39.73)"/><path class="cls-7" d="M1419,559.31s260.45-116.82,297.18-144.37l58.53,100.16-16.28,10.29s79.16,135.49,82.1,143.2l16-9.73L1912,752.29S1744,844,1700.9,859.18s-161.14,63.19-161.14,63.19Z" transform="translate(0.78 -39.73)"/><path class="cls-8" d="M1271.71,599.84S1372.37,571.43,1405.8,563l44.44,127.9,82.66,237.36s-114.12,40.9-182.7,51.68l-10.89-53.63,4.4-.62-10.28-50.81-3.06-.13-33.06-149.38,10.4-2.33-14-63.31-8.33,2.21Z" transform="translate(0.78 -39.73)"/><path class="cls-9" d="M1120.64,624.79l138.77-21.95,27,124.89h2.39l33.33,149.15-2.16.41,11,51.25,2.16-.46,3.81-1.15,11.2,53.91s-112.53,24.3-190.65,31.89l-.53-.71-4.25-37.52,24.25-3.49-1.15-9.55-20.66,3.72-.32-8.16h2.26l-5.17-51.95L1149,905l-25.44-236.57,2.21-.12Z" transform="translate(0.78 -39.73)"/><path class="cls-10" d="M969,634.24l138.49-8,4.65,43.16,2,.24,26,236.39-2.26,1.16,5.75,51.31,4.9-.67,5.63,54.24s-76.77,11.15-191.38,10.41l1.37-54.18,4.69-.37Z" transform="translate(0.78 -39.73)"/><path class="cls-9" d="M815.84,625.8s117.36,8.26,139.4,8.44l-.18,333.92,5.51-.36-.18,55.28s-146.39-2-191.94-10.84l5.88-54.12,5.26-.24,5.88-51.31-2.69-.73L809,669.1l2.85.13Z" transform="translate(0.78 -39.73)"/><path class="cls-11" d="M665.71,602.29l136.66,23-3.92,41.87,1.71,1L774,905.22H771l-4.9,51.68,4.9.24-5.63,54.37s-122-12-189.55-30.61l12.73-53.63,4.16.49,11.51-50.21-2.2-1,33.55-149.14,7.84,1.71,14.94-63.43-6.61-1.22Z" transform="translate(0.78 -39.73)"/><path class="cls-12" d="M519,560.78l132.25,38.93-26.64,124.9,1.84.55L594.33,875l-2.76.37-11.75,49.77,5.69,1.66-11.94,52.34s-96.79-19.83-182.75-50.32L408.45,878h2.2Z" transform="translate(0.78 -39.73)"/><path class="cls-13" d="M208.12,414.94s135.55,76.41,295.23,143L398.71,872.65l1.29,2-15.8,47.21L246.69,868l-19.59-7.35L111.82,801.76,66.63,774.94l-3.3,5L12.94,751.67l54-92.81L83.71,668l82.47-142.71L149.47,515Z" transform="translate(0.78 -39.73)"/></svg>